<svg width="1009" height="488" viewBox="0 0 1009 488" fill="none" xmlns="http://www.w3.org/2000/svg">
<path d="M793.11 49.9899C793.108 50.7549 792.879 51.5021 792.453 52.1372C792.027 52.7723 791.421 53.2668 790.714 53.5582C790.007 53.8495 789.229 53.9247 788.479 53.7743C787.729 53.6238 787.04 53.2545 786.5 52.7128C785.96 52.1712 785.592 51.4816 785.444 50.7312C785.295 49.9808 785.372 49.2031 785.666 48.4966C785.959 47.79 786.455 47.1862 787.091 46.7614C787.727 46.3366 788.475 46.1099 789.24 46.1099C789.749 46.1099 790.253 46.2103 790.723 46.4054C791.194 46.6005 791.621 46.8865 791.98 47.2469C792.34 47.6073 792.625 48.0351 792.818 48.5058C793.012 48.9765 793.111 49.4808 793.11 49.9899Z" stroke="white" stroke-opacity="0.4" stroke-width="3" stroke-linecap="round" stroke-linejoin="round"/>
<path d="M803.58 40.24C805.717 40.24 807.45 38.5074 807.45 36.37C807.45 34.2327 805.717 32.5 803.58 32.5C801.443 32.5 799.71 34.2327 799.71 36.37C799.71 38.5074 801.443 40.24 803.58 40.24Z" stroke="white" stroke-opacity="0.4" stroke-width="3" stroke-linecap="round" stroke-linejoin="round"/>
<path d="M807.822 64.7401L787.282 64.5645C785.438 64.5487 783.93 66.0312 783.914 67.8757L783.907 68.7257C783.891 70.5703 785.373 72.0784 787.218 72.0941L807.757 72.2698C809.602 72.2856 811.11 70.8031 811.126 68.9585L811.133 68.1085C811.149 66.264 809.666 64.7559 807.822 64.7401Z" stroke="white" stroke-opacity="0.4" stroke-width="3" stroke-miterlimit="10" stroke-linecap="round"/>
<path d="M806.62 95.58V72.25H788.49V95.57L779 130.05C779.003 132.374 779.928 134.602 781.572 136.245C783.217 137.887 785.446 138.81 787.77 138.81H807.34C809.664 138.81 811.893 137.887 813.538 136.245C815.182 134.602 816.107 132.374 816.11 130.05L806.62 95.58Z" stroke="white" stroke-opacity="0.4" stroke-width="3" stroke-miterlimit="10" stroke-linecap="round"/>
<path d="M784.21 111.13C784.21 111.13 789.61 107.67 797.55 111.82C799.638 113.022 802.091 113.424 804.454 112.951C806.816 112.479 808.926 111.163 810.39 109.25" stroke="white" stroke-opacity="0.4" stroke-width="3" stroke-miterlimit="10" stroke-linecap="round"/>
<path d="M533.43 467.83C539.787 467.83 544.94 462.677 544.94 456.32C544.94 449.963 539.787 444.81 533.43 444.81C527.073 444.81 521.92 449.963 521.92 456.32C521.92 462.677 527.073 467.83 533.43 467.83Z" stroke="white" stroke-opacity="0.4" stroke-width="3" stroke-linecap="round" stroke-linejoin="round"/>
<path d="M41.1207 459.344C21.4906 450.729 17.8414 463.763 19.2795 470.942C24.9421 470.942 30.6046 472.047 33.301 481.159C37.1232 494.076 47.5922 479.502 47.5922 479.502C47.5922 479.502 65.6583 470.114 41.1207 459.344Z" stroke="white" stroke-opacity="0.4"/>
<path d="M454 350.5C454 350.5 463.13 449.13 460.82 462.87" stroke="white" stroke-opacity="0.4" stroke-width="3" stroke-linecap="round" stroke-linejoin="round"/>
<path d="M467.38 421.14C467.38 421.14 476.3 475.67 467.38 486.32" stroke="white" stroke-opacity="0.4" stroke-width="3" stroke-linecap="round" stroke-linejoin="round"/>
<path d="M960.569 92.6227L984.288 92.8256C985.322 92.8344 986.311 93.2538 987.036 93.9914C987.761 94.729 988.163 95.7245 988.154 96.7588L988.113 101.579L956.594 101.309L956.636 96.4892C956.644 95.4549 957.064 94.4665 957.801 93.7414C958.539 93.0162 959.535 92.6139 960.569 92.6227V92.6227Z" stroke="white" stroke-opacity="0.4" stroke-width="3" stroke-miterlimit="10" stroke-linecap="round"/>
<path d="M977.404 70.5014C994.565 67.6759 1006.19 51.4741 1003.36 34.3137C1000.53 17.1533 984.333 5.5326 967.172 8.3581C950.012 11.1836 938.391 27.3854 941.217 44.5458C944.042 61.7062 960.244 73.3269 977.404 70.5014Z" stroke="white" stroke-opacity="0.4" stroke-width="3" stroke-miterlimit="10"/>
<path d="M980.067 69.93L964.507 8.93001L962.507 1.5C957.519 2.77251 952.831 5.01494 948.71 8.09926C944.589 11.1836 941.116 15.0494 938.489 19.476C935.862 23.9025 934.133 28.8032 933.399 33.8981C932.666 38.993 932.944 44.1824 934.217 49.17C935.489 54.1576 937.732 58.8457 940.816 62.9667C943.9 67.0877 947.766 70.5608 952.193 73.1878C956.619 75.8148 961.52 77.5441 966.615 78.2771C971.71 79.0102 976.899 78.7325 981.887 77.46L979.987 69.95" stroke="white" stroke-opacity="0.4" stroke-width="3" stroke-linecap="round" stroke-linejoin="round"/>
<path d="M967.923 22.329C978.455 19.6426 986.226 14.4627 985.282 10.7595C984.337 7.05624 975.034 6.23199 964.502 8.91845C953.97 11.6049 946.198 16.7848 947.143 20.488C948.088 24.1912 957.391 25.0155 967.923 22.329Z" stroke="white" stroke-opacity="0.4" stroke-width="3" stroke-miterlimit="10"/>
<path d="M980.066 69.9511C990.598 67.2646 998.37 62.0848 997.425 58.3815C996.481 54.6783 987.177 53.8541 976.646 56.5405C966.114 59.227 958.342 64.4068 959.287 68.1101C960.231 71.8133 969.535 72.6376 980.066 69.9511Z" stroke="white" stroke-opacity="0.4" stroke-width="3" stroke-miterlimit="10"/>
<path d="M980.072 69.9477C988.495 67.7991 991.839 52.3962 987.54 35.5444C983.242 18.6925 972.929 6.77321 964.506 8.92183C956.082 11.0705 952.739 26.4734 957.037 43.3252C961.336 60.177 971.649 72.0964 980.072 69.9477Z" stroke="white" stroke-opacity="0.4" stroke-width="3" stroke-miterlimit="10"/>
<path d="M941.776 47.2001L1002.8 31.6401" stroke="white" stroke-opacity="0.4" stroke-width="3" stroke-miterlimit="10"/>
<path d="M972.287 78.6299V92.5799" stroke="white" stroke-opacity="0.4" stroke-width="3" stroke-miterlimit="10"/>
<path d="M952.727 101.63H992.987" stroke="white" stroke-opacity="0.4" stroke-width="3" stroke-miterlimit="10" stroke-linecap="round"/>
<path d="M49.5233 139.045L64.5352 124.033L22.9361 82.4339L7.92419 97.4458L49.5233 139.045Z" stroke="white" stroke-opacity="0.4" stroke-width="3" stroke-linecap="round" stroke-linejoin="round"/>
<path d="M68.6103 143.11L64.5403 124.03L49.5303 139.05L68.6103 143.11Z" stroke="white" stroke-opacity="0.4" stroke-width="3" stroke-linecap="round" stroke-linejoin="round"/>
<path d="M66.7102 134.2L59.7002 141.21" stroke="white" stroke-opacity="0.4" stroke-width="3" stroke-linecap="round" stroke-linejoin="round"/>
<path d="M22.9385 82.4268L7.92661 97.4386L5.31739 94.8294C4.61909 94.1311 4.06517 93.3021 3.68725 92.3897C3.30934 91.4774 3.11482 90.4995 3.11482 89.512C3.11482 88.5244 3.30934 87.5465 3.68725 86.6342C4.06517 85.7218 4.61908 84.8928 5.31738 84.1945L9.69437 79.8175C10.3927 79.1192 11.2217 78.5653 12.134 78.1874C13.0464 77.8095 14.0243 77.615 15.0118 77.615C15.9994 77.615 16.9772 77.8095 17.8896 78.1874C18.802 78.5653 19.631 79.1192 20.3293 79.8175L22.9385 82.4268V82.4268Z" stroke="white" stroke-opacity="0.4" stroke-width="3" stroke-linecap="round" stroke-linejoin="round"/>
<path d="M26.9905 86.4802L11.9805 101.5" stroke="white" stroke-opacity="0.4" stroke-width="3" stroke-linecap="round" stroke-linejoin="round"/>
<path d="M57.0302 131.54L19.4902 93.9902" stroke="white" stroke-opacity="0.4" stroke-width="3" stroke-linecap="round" stroke-linejoin="round"/>
</svg>
