<svg width="62" height="62" viewBox="0 0 62 62" fill="none" xmlns="http://www.w3.org/2000/svg">
<g clip-path="url(#clip0_974_547)">
<path d="M58.125 54.25H3.875C1.73858 54.25 0 52.5115 0 50.375V14.2084C0 12.072 1.73858 10.3334 3.875 10.3334H11.625C12.338 10.3334 12.9167 10.912 12.9167 11.625C12.9167 12.338 12.338 12.9167 11.625 12.9167H3.875C3.162 12.9167 2.58333 13.4954 2.58333 14.2084V50.375C2.58333 51.0855 3.162 51.6667 3.875 51.6667H58.125C58.838 51.6667 59.4167 51.0855 59.4167 50.375V14.2084C59.4167 13.4954 58.838 12.9167 58.125 12.9167H50.375C49.662 12.9167 49.0833 12.338 49.0833 11.625C49.0833 10.912 49.662 10.3334 50.375 10.3334H58.125C60.2614 10.3334 62 12.072 62 14.2084V50.375C62 52.5115 60.2614 54.25 58.125 54.25Z" fill="white"/>
<path d="M40.0412 62H21.9579C21.436 62 20.9633 61.6848 20.7644 61.2017C20.5629 60.7186 20.6739 60.1632 21.0434 59.7938C24.443 56.3941 24.4869 53.103 24.4869 52.9635C24.4895 52.2556 25.0682 51.6666 25.7812 51.6666H36.1662C36.8766 51.6666 37.4553 52.2427 37.4579 52.9505C37.4604 53.1133 37.5612 56.4019 40.9557 59.7938C41.3251 60.1632 41.4362 60.7186 41.2347 61.2017C41.0358 61.6848 40.563 62 40.0412 62ZM24.7246 59.4166H37.2719C35.8252 57.3474 35.2517 55.446 35.0244 54.25H26.9385C26.7189 55.4512 26.1609 57.35 24.7246 59.4166ZM37.4579 52.9583H37.4837H37.4579Z" fill="white"/>
<path d="M60.7083 46.5H1.29167C0.578667 46.5 0 45.9213 0 45.2083C0 44.4953 0.578667 43.9166 1.29167 43.9166H60.7083C61.4213 43.9166 62 44.4953 62 45.2083C62 45.9213 61.4213 46.5 60.7083 46.5Z" fill="white"/>
<path d="M29.7083 18.0833C29.3673 18.0833 29.0367 17.949 28.7938 17.7062L24.9188 13.8312C24.4151 13.3274 24.4151 12.5085 24.9188 12.0048C25.4226 11.501 26.2415 11.501 26.7452 12.0048L29.6205 14.88L35.1721 8.21502C35.6293 7.66994 36.4405 7.59244 36.9933 8.04969C37.541 8.50693 37.6159 9.32068 37.1587 9.87093L30.7003 17.6209C30.4678 17.8973 30.1294 18.0653 29.7652 18.0833C29.7471 18.0833 29.7264 18.0833 29.7083 18.0833Z" fill="white"/>
<path d="M37.0214 25.8333H21.8211C19.7596 25.8333 18.083 24.1464 18.083 22.0694V3.76392C18.083 1.68692 19.7596 0 21.8211 0H40.1757C42.2398 0 43.9163 1.68692 43.9163 3.76392V18.8867C43.9163 19.8891 43.5288 20.832 42.8262 21.5424L39.6693 24.7277C38.977 25.4303 38.0108 25.8333 37.0214 25.8333ZM21.8211 2.58333C21.1856 2.58333 20.6663 3.11292 20.6663 3.76392V22.072C20.6663 22.7204 21.1856 23.25 21.8211 23.25H37.0214C37.3288 23.25 37.6156 23.1286 37.8326 22.9116L40.992 19.7237C41.2116 19.5016 41.333 19.2019 41.333 18.8867V3.76392C41.333 3.11292 40.8138 2.58333 40.1783 2.58333H21.8211Z" fill="white"/>
</g>
<defs>
<clipPath id="clip0_974_547">
<rect width="62" height="62" fill="white"/>
</clipPath>
</defs>
</svg>
