<svg width="9" height="9" viewBox="0 0 9 9" fill="none" xmlns="http://www.w3.org/2000/svg">
<g clip-path="url(#clip0_974_538)">
<path d="M3.97194 0.336767L8.13797 4.50242L3.97194 8.66807C3.89687 8.74579 3.89903 8.86965 3.97674 8.94472C4.05257 9.01794 4.17276 9.01794 4.24857 8.94472L8.55273 4.64055C8.62911 4.56416 8.62911 4.44032 8.55273 4.3639L4.24857 0.0597353C4.17085 -0.015337 4.04699 -0.0131721 3.97192 0.0645409C3.89868 0.140365 3.89868 0.260558 3.97192 0.336382L3.97194 0.336767Z" fill="#FDBF00"/>
<path d="M0.450345 0.336767L4.61638 4.50242L0.450345 8.66807C0.375273 8.74579 0.377437 8.86965 0.455151 8.94472C0.530975 9.01794 0.651167 9.01794 0.726991 8.94472L5.03116 4.64055C5.10753 4.56416 5.10753 4.44032 5.03116 4.3639L0.726991 0.0597353C0.651919 -0.0179777 0.528077 -0.0201235 0.450345 0.0549297C0.372632 0.130002 0.370486 0.253845 0.44554 0.331576C0.447117 0.333209 0.448713 0.334805 0.450345 0.336382V0.336767Z" fill="#FDBF00"/>
<path d="M8.73525 4.50218L8.73525 4.50209L8.55273 4.36427L8.64112 4.27588L8.64101 4.27577L4.33695 -0.028266L4.33696 -0.0282793L4.3354 -0.0297861C4.21114 -0.149812 4.01414 -0.149812 3.88988 -0.0297861L3.88987 -0.0297804C3.76253 0.0932379 3.75896 0.296231 3.88201 0.423616L3.882 0.423629L3.88353 0.425161L7.96117 4.50242L3.88391 8.58007L3.88389 8.58005L3.88239 8.58161C3.76238 8.70586 3.76239 8.90285 3.88238 9.0271L3.8824 9.02712C4.00541 9.15447 4.20841 9.15804 4.33579 9.03498L4.33581 9.03499L4.33733 9.03347L8.6415 4.7293L8.64159 4.72922C8.70174 4.66895 8.7354 4.58726 8.73525 4.50218Z" fill="#FDBF00" stroke="#FDBF00" stroke-width="0.25"/>
<path d="M5.21368 4.50208L5.21368 4.50217C5.21383 4.58725 5.18017 4.66894 5.12002 4.72921L5.11993 4.72929L0.815765 9.03347L0.814237 9.03499L0.814224 9.03498C0.686839 9.15804 0.483845 9.15447 0.360827 9.02712L0.360811 9.0271C0.240817 8.90284 0.240817 8.70586 0.360811 8.5816L0.362324 8.58003L0.362338 8.58005L4.43961 4.5024L0.362639 0.425802C0.236117 0.302685 0.232902 0.10035 0.355616 -0.026741C0.478657 -0.154173 0.681653 -0.157616 0.809012 -0.0346441L0.809046 -0.0346107L0.815366 -0.0282898L0.81538 -0.0283031L5.11944 4.27576L5.21368 4.50208ZM5.21368 4.50208C5.21347 4.41717 5.17961 4.33584 5.11955 4.27587L5.21368 4.50208Z" fill="#FDBF00" stroke="#FDBF00" stroke-width="0.25"/>
</g>
<defs>
<clipPath id="clip0_974_538">
<rect width="9" height="9" fill="white" transform="matrix(0 -1 1 0 0 9)"/>
</clipPath>
</defs>
</svg>
