<svg width="12" height="12" viewBox="0 0 12 12" fill="none" xmlns="http://www.w3.org/2000/svg">
<g clip-path="url(#clip0_974_694)">
<path d="M5.29592 0.448994L10.8506 6.0032L5.29592 11.5574C5.19582 11.661 5.19871 11.8262 5.30233 11.9263C5.40342 12.0239 5.56368 12.0239 5.66476 11.9263L11.4036 6.18737C11.5055 6.08551 11.5055 5.92039 11.4036 5.81851L5.66476 0.0796185C5.56114 -0.0204782 5.39599 -0.0175924 5.29589 0.0860252C5.19824 0.187124 5.19824 0.347382 5.29589 0.44848L5.29592 0.448994Z" fill="#EA5252"/>
<path d="M0.600135 0.448994L6.15485 6.0032L0.600135 11.5574C0.500038 11.661 0.502924 11.8262 0.606542 11.9263C0.707641 12.0239 0.867897 12.0239 0.968996 11.9263L6.70788 6.18737C6.80972 6.08551 6.80972 5.92039 6.70788 5.81851L0.968996 0.0796185C0.8689 -0.0240002 0.703777 -0.0268612 0.600135 0.0732107C0.496517 0.173307 0.493656 0.33843 0.593727 0.442073C0.59583 0.444249 0.597958 0.446377 0.600135 0.44848V0.448994Z" fill="#EA5252"/>
<path d="M11.6044 6.00298L11.6044 6.00289L11.4027 5.81902L11.491 5.73064L11.4909 5.73052L5.75216 -0.00822544L5.75217 -0.00823879L5.75061 -0.00974464C5.60107 -0.154186 5.36401 -0.154186 5.21447 -0.00974464L5.21447 -0.00973988C5.06122 0.138302 5.05693 0.382583 5.20501 0.535872L5.20652 0.537416L10.6728 6.00323L5.20703 11.4695L5.20702 11.4695L5.20551 11.4711C5.06109 11.6206 5.06111 11.8577 5.2055 12.0072L5.20552 12.0072C5.35356 12.1605 5.59784 12.1648 5.75113 12.0167L5.75114 12.0167L5.75267 12.0152L11.4916 6.27627L11.4916 6.27619C11.564 6.20367 11.6045 6.10537 11.6044 6.00298Z" fill="#EA5252" stroke="#EA5252" stroke-width="0.25"/>
<path d="M6.90958 6.00288L6.90958 6.00296C6.90976 6.10535 6.86925 6.20365 6.79688 6.27617L6.79679 6.27626L1.0579 12.0152L1.05637 12.0167L1.05636 12.0167C0.903068 12.1648 0.658787 12.1605 0.510745 12.0072L0.510729 12.0072C0.366328 11.8577 0.366328 11.6206 0.510729 11.4711L0.512242 11.4695L0.512256 11.4695L5.97807 6.00319L0.512437 0.538054C0.360002 0.389913 0.35607 0.146292 0.503803 -0.00671291C0.651864 -0.160056 0.896146 -0.164207 1.04941 -0.0162182L1.04944 -0.0161905L1.05737 -0.00826263L1.05738 -0.00827599L6.79616 5.73051L6.90958 6.00288ZM6.90958 6.00288C6.90933 5.90068 6.86857 5.80279 6.79627 5.73062L6.90958 6.00288Z" fill="#EA5252" stroke="#EA5252" stroke-width="0.25"/>
</g>
<defs>
<clipPath id="clip0_974_694">
<rect width="12" height="12" fill="white" transform="matrix(0 -1 1 0 0 12)"/>
</clipPath>
</defs>
</svg>
