<svg width="62" height="62" viewBox="0 0 62 62" fill="none" xmlns="http://www.w3.org/2000/svg">
<g clip-path="url(#clip0_974_705)">
<path d="M60.625 10.4553L31.702 0.12194C31.2452 -0.0392633 30.7471 -0.0392633 30.2904 0.12194L1.37465 10.4553C0.555089 10.7507 0.00878906 11.5283 0.00878906 12.3995C0.00878906 13.2707 0.555089 14.0483 1.37465 14.3437L15.5003 19.3905V25.8333C15.5003 29.8509 29.4142 29.9667 31.0003 29.9667C32.5865 29.9667 46.5003 29.8509 46.5003 25.8333V19.3905L49.6003 18.29V20.6667C49.6003 21.8081 50.5256 22.7333 51.667 22.7333H53.7337C54.875 22.7333 55.8003 21.8081 55.8003 20.6667V17.5667C55.7972 17.0882 55.6819 16.6171 55.4635 16.1913L60.6301 14.3437C61.4497 14.0483 61.996 13.2707 61.996 12.3995C61.996 11.5283 61.4497 10.7507 60.6301 10.4553H60.625ZM44.4337 23.56C40.4977 21.7682 32.2042 21.7 31.0003 21.7C29.7965 21.7 21.5029 21.7682 17.567 23.56V14.5576C18.187 13.7619 23.0602 12.4 31.0003 12.4C38.9405 12.4 43.8137 13.7619 44.4337 14.5576V23.56ZM31.0003 27.9C23.3536 27.9 18.5517 26.6373 17.6538 25.8333C18.5517 25.0294 23.3557 23.7667 31.0003 23.7667C38.6449 23.7667 43.4489 25.0294 44.3469 25.8333C43.4489 26.6373 38.647 27.9 31.0003 27.9ZM50.085 15.9185L46.5003 17.1967V14.4667C46.5003 10.4491 32.5865 10.3333 31.0003 10.3333C29.4142 10.3333 15.5003 10.4491 15.5003 14.4667V17.1957L2.06698 12.4L31.0148 2.06667L51.667 9.44674V14.6568C51.0136 14.889 50.4567 15.3331 50.085 15.9185ZM53.7337 20.6667H51.667V17.5667C51.667 16.996 52.1296 16.5333 52.7003 16.5333C53.271 16.5333 53.7337 16.996 53.7337 17.5667V20.6667ZM53.7337 14.6155V10.1856L59.9337 12.4L53.7337 14.6155Z" fill="white"/>
<path d="M58.9 32.0333C58.838 32.0331 58.776 32.0387 58.715 32.0499C49.5466 33.4753 40.2784 34.1609 31 34.1C21.7216 34.1609 12.4534 33.4753 3.28497 32.0499C3.22385 32.0394 3.162 32.0339 3.1 32.0333C2.37667 32.0333 0 32.8528 0 43.4C0 53.9472 2.37667 54.7667 3.1 54.7667C3.16205 54.7654 3.2239 54.7591 3.28497 54.7481C10.3299 53.6322 17.441 52.9839 24.5716 52.8075L22.5546 57.6455C22.2447 58.4202 22.4331 59.3053 23.0316 59.8866C23.6301 60.468 24.5204 60.6305 25.2857 60.2981L26.0762 59.9602L26.4182 60.7466C26.7413 61.5091 27.4904 62.0032 28.3185 62H28.3443C29.1786 61.9935 29.9266 61.4843 30.2384 60.7104L32.0333 56.4138L33.822 60.6939C34.1311 61.475 34.8823 61.9913 35.7223 62H35.7533C36.5758 62.0034 37.3209 61.5153 37.6464 60.76L37.9915 59.9674L38.7696 60.3012C39.5382 60.6405 40.4359 60.4789 41.0379 59.8928C41.6399 59.3067 41.8255 58.4137 41.5069 57.6362L39.5291 52.8932C45.9581 53.1209 52.3671 53.742 58.7202 54.7532C58.7796 54.7631 58.8398 54.7676 58.9 54.7667C59.6233 54.7667 62 53.9472 62 43.4C62 32.8528 59.6233 32.0333 58.9 32.0333ZM34.3067 36.1357C34.7358 37.7135 34.9857 39.3347 35.0517 40.9686C32.7087 39.8791 29.9607 40.1345 27.8587 41.6371C27.8058 39.7815 27.568 37.9358 27.1488 36.1274C28.4005 36.1536 29.6842 36.1667 31 36.1667C32.1294 36.1667 33.2258 36.1543 34.3067 36.1357ZM32.0333 52.7C29.1799 52.7 26.8667 50.3868 26.8667 47.5333C26.8667 44.6799 29.1799 42.3667 32.0333 42.3667C34.8868 42.3667 37.2 44.6799 37.2 47.5333C37.1966 50.3854 34.8854 52.6966 32.0333 52.7ZM3.1 34.6167C3.89176 37.4743 4.24026 40.4366 4.13333 43.4C4.24026 46.3634 3.89176 49.3257 3.1 52.1833C2.30824 49.3257 1.95974 46.3634 2.06667 43.4C1.95974 40.4366 2.30824 37.4743 3.1 34.6167ZM5.18733 52.359C5.75256 50.7201 6.2 47.9777 6.2 43.4C6.2 38.8223 5.75257 36.0799 5.1863 34.4389C11.7527 35.3458 18.3639 35.8919 24.9901 36.0747C25.6099 38.4655 25.8937 40.9309 25.8333 43.4C25.8333 43.5498 25.8333 43.6924 25.8271 43.8361C24.5871 45.894 24.4621 48.4368 25.4944 50.6065L25.4489 50.716C18.6695 50.8822 11.9048 51.4314 5.18733 52.3611V52.359ZM28.3206 59.9333L27.5662 58.1973C27.3394 57.6761 26.734 57.436 26.2115 57.66L24.4724 58.4288L26.8956 52.6194C27.8904 53.6275 29.1596 54.321 30.5453 54.6137L28.3206 59.9333ZM37.8551 57.66C37.3326 57.436 36.7273 57.6761 36.5004 58.1973L35.7358 59.9158L33.5203 54.6117C34.9071 54.3188 36.1773 53.6249 37.1731 52.6163L39.5911 58.403L37.8551 57.66ZM58.6933 52.6483C52.0545 51.6266 45.3602 51.0055 38.6467 50.7883L38.5733 50.6106C39.8728 47.8722 39.3157 44.613 37.1804 42.4617C37.1724 40.3187 36.9249 38.1834 36.4426 36.0954C43.8937 35.9285 51.3262 35.2789 58.6933 34.1506C59.1728 34.9649 59.9333 38.1858 59.9333 43.4C59.9333 48.6142 59.1676 51.8341 58.6933 52.6483Z" fill="white"/>
</g>
<defs>
<clipPath id="clip0_974_705">
<rect width="62" height="62" fill="white"/>
</clipPath>
</defs>
</svg>
