<svg width="24" height="27" viewBox="0 0 24 27" fill="none" xmlns="http://www.w3.org/2000/svg">
<path d="M23.7068 24.6327L16.8818 17.2228C18.2038 15.4499 18.9998 13.197 18.9998 10.7433C18.9998 5.05642 14.7378 0.429138 9.49988 0.429138C4.26193 0.429138 0 5.05637 0 10.7433C0 16.4302 4.26197 21.0575 9.49992 21.0575C11.7599 21.0575 13.8349 20.1933 15.4678 18.758L22.2928 26.1679C22.4878 26.3796 22.7438 26.486 22.9998 26.486C23.2558 26.486 23.5118 26.3796 23.7068 26.1679C24.0978 25.7434 24.0978 25.0572 23.7068 24.6327ZM9.49992 18.8861C5.36395 18.8861 2 15.2338 2 10.7433C2 6.2528 5.36395 2.60051 9.49992 2.60051C13.6359 2.60051 16.9998 6.2528 16.9998 10.7433C16.9998 15.2338 13.6359 18.8861 9.49992 18.8861Z" fill="white"/>
</svg>
