<svg width="64" height="62" viewBox="0 0 64 62" fill="none" xmlns="http://www.w3.org/2000/svg">
<path d="M28.6719 16.4688C28.3845 16.4688 28.1035 16.554 27.8646 16.7136C27.6256 16.8733 27.4393 17.1003 27.3294 17.3658C27.2194 17.6313 27.1906 17.9235 27.2467 18.2054C27.3027 18.4872 27.4411 18.7462 27.6444 18.9494C27.8476 19.1526 28.1065 19.291 28.3884 19.3471C28.6703 19.4032 28.9624 19.3744 29.228 19.2644C29.4935 19.1544 29.7204 18.9682 29.8801 18.7292C30.0398 18.4902 30.125 18.2093 30.125 17.9219C30.1246 17.5366 29.9714 17.1672 29.6989 16.8948C29.4265 16.6224 29.0571 16.4692 28.6719 16.4688Z" fill="white"/>
<path d="M37.3906 16.4688C37.1032 16.4688 36.8223 16.554 36.5833 16.7136C36.3443 16.8733 36.1581 17.1003 36.0481 17.3658C35.9381 17.6313 35.9094 17.9235 35.9654 18.2054C36.0215 18.4872 36.1599 18.7462 36.3631 18.9494C36.5663 19.1526 36.8253 19.291 37.1071 19.3471C37.389 19.4032 37.6812 19.3744 37.9467 19.2644C38.2122 19.1544 38.4392 18.9682 38.5988 18.7292C38.7585 18.4902 38.8437 18.2093 38.8437 17.9219C38.8433 17.5366 38.6901 17.1672 38.4177 16.8948C38.1452 16.6224 37.7759 16.4692 37.3906 16.4688Z" fill="white"/>
<path d="M33.0312 22.2812C32.7744 22.281 32.5282 22.1788 32.3466 21.9972C32.1649 21.8156 32.0628 21.5693 32.0625 21.3125H30.125C30.125 22.0833 30.4312 22.8225 30.9762 23.3675C31.5212 23.9126 32.2605 24.2188 33.0312 24.2188C33.802 24.2188 34.5413 23.9126 35.0863 23.3675C35.6313 22.8225 35.9375 22.0833 35.9375 21.3125H34C33.9997 21.5693 33.8976 21.8156 33.7159 21.9972C33.5343 22.1788 33.2881 22.281 33.0312 22.2812Z" fill="white"/>
<path d="M60.7824 37.0426C60.6751 36.9517 60.5492 36.8853 60.4136 36.8479C60.2779 36.8105 60.1358 36.803 59.997 36.8261L51.2387 38.2858C50.6624 38.3813 50.1108 38.5903 49.616 38.9008L48.9484 37.2151C48.685 36.5383 48.3092 35.9108 47.8368 35.3591L48.0895 33.0684C48.1543 32.4846 48.1884 31.8978 48.1917 31.3105C48.1902 29.1639 47.7516 27.0401 46.9027 25.0685C46.0698 23.1163 45.692 21.0003 45.7977 18.8806L45.9625 15.5274C45.9726 15.3161 45.983 15.0975 45.983 14.8806C45.978 11.4479 44.6115 8.1574 42.1835 5.73093C39.7554 3.30447 36.464 1.94022 33.0313 1.9375C31.2769 1.93783 29.5409 2.29461 27.9287 2.9862C26.3164 3.6778 24.8614 4.68977 23.6521 5.96071C22.4428 7.23165 21.5043 8.73506 20.8937 10.3797C20.283 12.0243 20.0129 13.7759 20.0997 15.5281L20.2639 18.8703C20.2736 19.1199 20.2825 19.3555 20.2825 19.5887C20.2859 21.4727 19.9037 23.3374 19.1596 25.0681C18.0769 27.589 17.668 30.348 17.9729 33.0746L18.2249 35.3337C17.9318 35.6762 17.6747 36.048 17.4576 36.4432L16.1352 33.1373C15.9924 32.78 15.7789 32.4552 15.5074 32.1825C15.2358 31.9099 14.912 31.6949 14.5553 31.5506C14.1985 31.4064 13.8163 31.3357 13.4316 31.343C13.0468 31.3503 12.6676 31.4353 12.3165 31.5929C11.9655 31.7506 11.65 31.9776 11.389 32.2603C11.128 32.543 10.9268 32.8756 10.7977 33.2381C10.6685 33.6006 10.614 33.9854 10.6374 34.3695C10.6608 34.7536 10.7617 35.129 10.934 35.4731L11.1201 35.8438H9.21588C8.46404 35.8429 7.72262 35.6678 7.04976 35.3324L6.0844 34.8497C5.75946 34.6872 5.39839 34.6105 5.03547 34.6268C4.67255 34.6432 4.31983 34.752 4.0108 34.943C3.70177 35.134 3.44669 35.4008 3.26978 35.7181C3.09288 36.0354 3.00001 36.3927 3.00002 36.7559V39.49C2.99818 40.0301 3.14771 40.5599 3.43167 41.0194C3.71563 41.4788 4.12265 41.8495 4.60657 42.0894L6.18333 42.8778C7.12534 43.3474 8.16331 43.5925 9.21588 43.5938H9.78127V46.4626L9.08534 55.5094C9.04071 56.0903 9.11661 56.6743 9.30829 57.2245C9.49996 57.7748 9.80327 58.2795 10.1992 58.707C10.5951 59.1345 11.0751 59.4756 11.609 59.7088C12.143 59.9421 12.7194 60.0625 13.3021 60.0625C13.3738 60.0625 13.445 60.0607 13.5159 60.057C13.5777 60.06 13.6393 60.0624 13.7007 60.0624C14.5002 60.0625 15.2804 59.8169 15.9357 59.3587C16.5909 58.9006 17.0895 58.2521 17.3638 57.5011L21.786 49.2789C22.0494 50.5045 22.5814 51.6564 23.3438 52.6516V60.0625H25.2813V52.3125C25.2813 52.0859 25.2018 51.8665 25.0568 51.6924C23.9385 50.3474 23.3994 48.6137 23.5578 46.8718C23.7162 45.1298 24.559 43.5218 25.9015 42.4005L24.661 40.912C24.2195 41.28 23.8163 41.6916 23.4575 42.1406C23.421 42.1783 23.3875 42.2188 23.3573 42.2617L23.3552 42.2605L23.338 42.2907C23.3336 42.2974 23.3301 42.305 23.3258 42.3119C22.7844 43.0253 22.3593 43.8199 22.0665 44.6663L17.5313 53.0996V41.3301L18.9079 37.9023C19.1383 37.3175 19.4852 36.7856 19.9273 36.3388C20.3813 35.8776 20.922 35.5108 21.5183 35.2596C22.1146 35.0083 22.7548 34.8776 23.4019 34.875H26.6437L32.1808 45.0264C32.2642 45.1792 32.3871 45.3067 32.5368 45.3955C32.6864 45.4844 32.8572 45.5312 33.0313 45.5312C33.2053 45.5312 33.3761 45.4844 33.5258 45.3955C33.6754 45.3067 33.7984 45.1792 33.8817 45.0264L35.9375 41.2575V54.25C35.9375 54.474 36.0151 54.691 36.1571 54.8642C36.2991 55.0374 36.4967 55.1561 36.7163 55.2L40.7813 56.013V60.0625H42.7188V56.4004L46.4252 57.1406C46.4494 57.1449 46.5617 57.1562 46.5938 57.1562H48.4265L48.6125 57.5028C48.8911 58.2538 49.3927 58.9015 50.0501 59.3591C50.7075 59.8166 51.4891 60.0621 52.29 60.0625C52.504 60.0637 52.7177 60.046 52.9285 60.0097C53.6124 59.8935 54.2532 59.5982 54.7859 59.1539C55.3185 58.7096 55.7239 58.1321 55.9609 57.4802L58.5373 57.0508C58.9731 56.9792 59.3712 56.7602 59.6651 56.4304C59.9589 56.1007 60.1307 55.68 60.1518 55.2388L60.3455 55.2C60.5653 55.1562 60.7631 55.0376 60.9052 54.8644C61.0473 54.6912 61.125 54.4741 61.125 54.25V37.7812C61.125 37.6406 61.0943 37.5017 61.0351 37.3742C60.976 37.2466 60.8897 37.1335 60.7824 37.0426ZM28.741 34.6746C29.1525 34.4922 29.5022 34.1945 29.7478 33.8174C29.9935 33.4403 30.1245 33 30.125 32.55V29.5853C32.0169 30.1799 34.0456 30.1799 35.9375 29.5853V32.55C35.9381 32.9999 36.0692 33.4401 36.3148 33.8171C36.5604 34.194 36.91 34.4917 37.3214 34.6741L36.1555 36.8125H29.907L28.741 34.6746ZM33.0313 28.0938C30.9765 28.0914 29.0066 27.2742 27.5537 25.8213C26.1008 24.3684 25.2836 22.3985 25.2813 20.3438V16.0067C27.0256 14.7463 28.4595 13.1048 29.474 11.2069C32.755 13.8331 36.643 15.5933 40.7813 16.3259V20.3438C40.779 22.3985 39.9617 24.3684 38.5088 25.8213C37.0559 27.2742 35.086 28.0914 33.0313 28.0938ZM46.1233 36.3554L46.1412 36.3738C46.5802 36.8155 46.9225 37.3438 47.1463 37.925L47.5625 38.9757C47.0391 38.6239 46.4462 38.3885 45.824 38.2855L38.2475 37.0227L39.4188 34.875H42.651C43.2998 34.8742 43.942 35.005 44.5388 35.2595C45.1356 35.5139 45.6746 35.8867 46.1233 36.3554ZM46.6897 41.6562L42.2819 40.7748L37.8741 39.8932V38.9245L45.5044 40.196C45.9126 40.2628 46.2973 40.4316 46.6228 40.687C46.9482 40.9423 47.2038 41.2757 47.3659 41.6562H46.6897ZM51.5576 40.1966L59.1875 38.9247V39.8935L54.6311 40.8048L50.3729 41.6562H49.6967C49.8587 41.2759 50.1143 40.9427 50.4395 40.6875C50.7648 40.4323 51.1493 40.2634 51.5573 40.1966H51.5576ZM7.04976 41.1449L5.47299 40.3566C5.3117 40.2766 5.17604 40.153 5.0814 39.9998C4.98676 39.8467 4.93691 39.67 4.93752 39.49V36.7559C4.93672 36.7228 4.94482 36.69 4.96099 36.661C4.97715 36.632 5.00078 36.6079 5.02943 36.5911C5.05718 36.5729 5.08932 36.5625 5.12248 36.5611C5.15563 36.5596 5.18858 36.567 5.21785 36.5827L6.18333 37.0653C7.12534 37.5349 8.16331 37.78 9.21588 37.7812H12.6875C12.8526 37.7812 13.015 37.739 13.1593 37.6586C13.3035 37.5782 13.4248 37.4622 13.5116 37.3218C13.5984 37.1813 13.6478 37.021 13.6553 36.856C13.6627 36.691 13.6278 36.5269 13.5539 36.3792L12.6672 34.6054C12.6058 34.4828 12.5728 34.348 12.5706 34.2109C12.5683 34.0738 12.5969 33.9379 12.6542 33.8133C12.7115 33.6888 12.796 33.5786 12.9016 33.4911C13.0071 33.4036 13.131 33.3409 13.264 33.3077C13.4788 33.2547 13.7055 33.281 13.9025 33.3817C14.0995 33.4824 14.2535 33.6507 14.3363 33.8559L15.5938 36.9991V41.6562H9.21588C8.46404 41.6554 7.72262 41.4803 7.04976 41.1449ZM15.5938 43.5938V45.5312H11.7188V43.5938H15.5938ZM11.0173 55.6576L11.6471 47.4688H15.5938V55.8333C15.5929 56.4119 15.3733 56.9687 14.979 57.3922C14.5848 57.8157 14.045 58.0744 13.468 58.1166C13.4316 58.1165 13.3952 58.1183 13.359 58.1221C13.3398 58.1221 13.3213 58.125 13.3021 58.125C12.9863 58.125 12.674 58.0598 12.3846 57.9334C12.0952 57.807 11.8351 57.6222 11.6206 57.3905C11.4061 57.1588 11.2417 56.8853 11.1379 56.5871C11.0341 56.2889 10.993 55.9724 11.0173 55.6576ZM23.3593 42.2629C23.3786 42.237 23.3991 42.212 23.4209 42.1881C23.401 42.2134 23.3818 42.2391 23.3622 42.2645L23.3593 42.2629ZM20.0096 33.8527L19.8985 32.8572C19.6309 30.4645 19.9897 28.0434 20.9399 25.8312C21.788 23.8593 22.2236 21.7347 22.22 19.5881C22.22 19.3175 22.2098 19.052 22.1994 18.7849L22.0347 15.4326C21.9619 13.9655 22.1832 12.4986 22.6858 11.1184C23.1884 9.73811 23.962 8.47235 24.9612 7.3956C25.9603 6.31885 27.1648 5.45288 28.5037 4.84865C29.8425 4.24442 31.2888 3.91415 32.7572 3.87729C34.2257 3.84043 35.6866 4.09772 37.0541 4.634C38.4216 5.17029 39.668 5.97475 40.72 7.00001C41.7719 8.02527 42.608 9.25061 43.1792 10.6039C43.7504 11.9572 44.0451 13.4111 44.046 14.88C44.046 15.0507 44.0371 15.2371 44.0278 15.433L43.8632 18.7827C43.743 21.1966 44.1733 23.6062 45.1216 25.8293C45.8674 27.5603 46.253 29.4251 46.2547 31.31C46.2514 31.8279 46.221 32.3453 46.1636 32.86L46.0536 33.8583C45.0205 33.2565 43.8465 32.9388 42.651 32.9375H38.2625C38.1602 32.9362 38.0624 32.8949 37.99 32.8225C37.9176 32.7501 37.8764 32.6524 37.875 32.55V28.7279C39.3467 27.8779 40.5689 26.6558 41.4191 25.1842C42.2693 23.7126 42.7175 22.0433 42.7188 20.3438V15.5C42.7188 15.2668 42.6347 15.0414 42.4819 14.8652C42.3291 14.6891 42.1178 14.5739 41.887 14.5409C37.6313 13.9339 33.6285 12.1545 30.3266 9.40184L29.7765 8.94326C29.6643 8.84973 29.5324 8.7828 29.3906 8.74747C29.2489 8.71214 29.101 8.70932 28.958 8.73923C28.815 8.76914 28.6806 8.831 28.5649 8.92019C28.4492 9.00937 28.3552 9.12356 28.2898 9.25423L27.9145 10.005C26.9654 11.901 25.5388 13.517 23.7752 14.6939C23.6425 14.7823 23.5337 14.9022 23.4584 15.0428C23.3831 15.1835 23.3438 15.3405 23.3438 15.5V20.3438C23.345 22.0433 23.7933 23.7126 24.6434 25.1842C25.4936 26.6558 26.7158 27.8779 28.1875 28.7279V32.55C28.1862 32.6524 28.1449 32.7501 28.0725 32.8225C28.0002 32.8949 27.9024 32.9362 27.8 32.9375H23.4019C22.2106 32.9413 21.0411 33.2568 20.0096 33.8527ZM33.0313 42.5394L30.9643 38.75H35.0982L33.0313 42.5394ZM37.875 41.8693L45.625 43.4193V55.0057L37.875 53.4557V41.8693ZM47.5625 43.5938H49.5V55.2188H47.5625V43.5938ZM52.5961 58.1008C52.495 58.1179 52.3926 58.126 52.29 58.125C51.9451 58.1247 51.6063 58.0345 51.3069 57.8633C51.0075 57.6921 50.7579 57.4459 50.5826 57.1489C50.6009 57.1468 50.6189 57.1438 50.637 57.1406C50.6441 57.1393 50.6513 57.1388 50.6584 57.1375H50.66L50.6666 57.1362L52.658 56.7379C52.8746 57.1258 53.2196 57.4261 53.6336 57.5873C53.3453 57.856 52.9846 58.0345 52.5961 58.1008ZM58.2188 55.1396L54.3438 55.7855V52.1847C54.3436 52.1155 54.3681 52.0485 54.4129 51.9957C54.4576 51.9428 54.5197 51.9077 54.588 51.8964L57.8785 51.348C57.8949 51.3453 57.9115 51.3439 57.9281 51.3438C58.0054 51.3443 58.0793 51.3753 58.1338 51.4301C58.1882 51.4849 58.2188 51.5591 58.2188 51.6363L58.2195 55.1393L58.2188 55.1396ZM57.5598 49.4369L54.2694 49.9852C53.7482 50.0707 53.2744 50.339 52.933 50.742C52.5916 51.1451 52.4049 51.6565 52.4063 52.1847V54.8125L51.4375 55.0062V43.4193L59.1875 41.8693V49.7984C58.7124 49.4713 58.1288 49.3417 57.5599 49.4369H57.5598Z" fill="white"/>
</svg>
