<svg width="62" height="62" viewBox="0 0 62 62" fill="none" xmlns="http://www.w3.org/2000/svg">
<g clip-path="url(#clip0_974_714)">
<path d="M51.0715 39.9618C51.0715 37.0378 48.988 34.5914 46.2276 34.0288V27.4889C46.2276 26.8931 45.9355 26.3353 45.4458 25.9959C44.9561 25.6564 44.331 25.5787 43.7733 25.7881L40.3065 27.0882C38.0299 24.7213 35.2626 22.9387 32.2301 21.8443C35.21 19.6363 37.1454 16.0949 37.1454 12.1096C37.1454 5.43226 31.7131 0 25.0357 0C18.3584 0 12.9261 5.43226 12.9261 12.1096C12.9261 16.0949 14.8614 19.6363 17.8414 21.8443C14.8088 22.9388 12.0416 24.7215 9.76499 27.0882L6.29812 25.7881C5.74035 25.5787 5.11525 25.6564 4.62565 25.9959C4.13594 26.3353 3.84386 26.8931 3.84386 27.4889V34.0288C1.08346 34.5914 -1 37.0377 -1 39.9618C-1 42.8859 1.08346 45.3322 3.84386 45.8948V52.9191C3.84386 53.6763 4.31359 54.3541 5.02249 54.6199L24.3979 61.8857C24.8065 62.038 25.2648 62.038 25.6734 61.8857L45.0489 54.6199C45.7577 54.3541 46.2275 53.6763 46.2275 52.9191V45.8948C48.988 45.3322 51.0715 42.8858 51.0715 39.9618ZM16.559 12.1096C16.559 7.43556 20.3616 3.63289 25.0357 3.63289C29.7098 3.63289 33.5125 7.43556 33.5125 12.1096C33.5125 16.7837 29.7098 20.5864 25.0357 20.5864C20.3616 20.5864 16.559 16.7837 16.559 12.1096ZM25.0357 24.2193C29.2914 24.2193 33.3561 25.7573 36.5277 28.5052L25.0357 32.8147L13.5438 28.5052C16.7154 25.7573 20.7802 24.2193 25.0357 24.2193ZM2.63289 39.9618C2.63289 38.6263 3.71937 37.5399 5.05482 37.5399H6.26579V42.3837H5.05482C3.71937 42.3837 2.63289 41.2972 2.63289 39.9618ZM7.47675 45.9557C8.85688 45.6744 9.89868 44.4512 9.89868 42.9892V36.9344C9.89868 35.4724 8.85688 34.2492 7.47675 33.9679V30.11L23.2193 36.0134V57.5639L7.47675 51.6604V45.9557ZM26.8522 57.5638V36.0134L42.5947 30.11V33.9679C41.2146 34.2492 40.1728 35.4724 40.1728 36.9344V42.9892C40.1728 44.4512 41.2146 45.6744 42.5947 45.9557V51.6603L26.8522 57.5638ZM45.0166 42.3837H43.8057V37.5399H45.0166C46.3521 37.5399 47.4386 38.6263 47.4386 39.9618C47.4386 41.2972 46.3522 42.3837 45.0166 42.3837Z" fill="white"/>
</g>
<defs>
<clipPath id="clip0_974_714">
<rect width="62" height="62" fill="white"/>
</clipPath>
</defs>
</svg>
