<svg width="18" height="15" viewBox="0 0 18 15" fill="none" xmlns="http://www.w3.org/2000/svg">
<path d="M14.713 6.80333H1.94355H1.9435C1.63602 6.80339 1.38672 7.05266 1.38672 7.36019C1.38672 7.66771 1.63603 7.91702 1.94355 7.91702H14.713L10.1424 12.4876C9.92297 12.7014 9.9174 13.0526 10.1305 13.2732L10.1305 13.2732C10.3442 13.4944 10.6966 13.5005 10.9178 13.2869L10.9179 13.2868C10.9219 13.283 10.9258 13.279 10.9297 13.2751L16.4512 7.75359L16.4516 7.75314C16.503 7.70157 16.5438 7.64037 16.5717 7.57288L14.713 6.80333ZM14.713 6.80333L10.1404 2.2308L10.1374 2.22773L10.1374 2.22771C9.92898 2.01193 9.92901 1.66985 10.1374 1.45408L10.1374 1.45404C10.351 1.2329 10.7035 1.2267 10.9248 1.4404L10.9279 1.4434L10.9278 1.44342L16.4503 6.96593L14.713 6.80333ZM16.5717 7.57287C16.6577 7.36473 16.6099 7.12527 16.4506 6.96616L16.5717 7.57287Z" fill="white" stroke="white" stroke-width="0.5"/>
<path d="M10.1402 12.4886C10.0352 12.5934 9.9763 12.7356 9.97656 12.8839L9.97656 12.8839L10.5339 13.1897V13.4397C10.5341 13.4397 10.5342 13.4397 10.5344 13.4397C10.6817 13.4396 10.8229 13.3811 10.9271 13.2771L10.9273 13.2769L16.45 7.75419L16.4501 7.75414C16.6674 7.5367 16.6674 7.18424 16.4501 6.9668L16.45 6.96678L10.9273 1.44406L10.9273 1.44403L10.9242 1.44102C10.7084 1.2326 10.3664 1.23263 10.1506 1.441L10.1506 1.44103C9.92941 1.65465 9.92321 2.00716 10.1369 2.22838L10.1369 2.22841L10.1399 2.23147L15.2693 7.36018L10.1402 12.4886ZM10.1402 12.4886L10.3167 12.6656M10.1402 12.4886L10.1399 12.4889L10.3167 12.6656M10.3167 12.6656C10.2589 12.7233 10.2264 12.8017 10.2266 12.8834L10.3167 12.6656Z" fill="white" stroke="white" stroke-width="0.5"/>
<path d="M16.614 7.36023V7.36018C16.614 7.05266 16.3647 6.80336 16.0572 6.80336H1.94355C1.63603 6.80336 1.38672 7.05266 1.38672 7.36018C1.38672 7.66774 1.63606 7.91698 1.94355 7.91698H16.0572C16.3647 7.91698 16.614 7.66774 16.614 7.36023Z" fill="white" stroke="white" stroke-width="0.5"/>
</svg>
