<svg width="62" height="62" viewBox="0 0 62 62" fill="none" xmlns="http://www.w3.org/2000/svg">
<path d="M54.2474 42.6251H47.2043C44.7426 42.6251 42.3946 41.7017 40.5952 40.0216L30.9311 31.0017L40.5989 21.9785C42.3964 20.2984 44.7445 19.375 47.208 19.375H54.2504V23.2501L62.0002 17.4376L54.2504 11.6251V15.5002H47.208C43.7587 15.5002 40.4721 16.7943 37.9538 19.1481L15.5948 40.0177C13.7916 41.6979 11.4473 42.6251 8.98947 42.6251C8.98565 42.6251 0.00390625 42.6251 0.00390625 42.6251V46.4925L8.9744 46.4963H8.99138C12.4312 46.4963 15.714 45.2021 18.2381 42.8484L28.0919 33.6515L37.95 42.8521C40.4702 45.2059 43.7568 46.5 47.2042 46.5H54.2472V50.3751L61.997 44.5628L54.2472 38.75C54.2474 38.7501 54.2474 42.6251 54.2474 42.6251Z" fill="white"/>
<path d="M8.98939 19.3787C11.4453 19.3787 13.7896 20.302 15.589 21.9822L22.4122 28.3505L25.2512 25.7009L18.2341 19.1517C15.7139 16.7979 12.4311 15.5037 8.9913 15.5037C8.98568 15.5037 8.97994 15.5037 8.97432 15.5037L0 15.5074V19.3748H8.97612C8.98185 19.375 8.98557 19.3787 8.98939 19.3787Z" fill="white"/>
</svg>
