<svg width="68" height="68" viewBox="0 0 68 68" fill="none" xmlns="http://www.w3.org/2000/svg">
<g clip-path="url(#clip0_974_506)">
<path d="M66.5833 56.1667H9V51.5H18.4167C19.4759 51.5 20.3334 50.6425 20.3334 49.5833V43H29.75C30.8092 43 31.6667 42.1425 31.6667 41.0833V34.5H41.0834C42.1426 34.5 43.0001 33.6425 43.0001 32.5833V26H52.4168C53.476 26 54.3336 25.1425 54.3336 24.0833V17.5H63.75C64.8092 17.5 65.6667 16.6425 65.6667 15.5833C65.6667 14.5241 64.8092 13.6666 63.75 13.6666H52.4167C51.3575 13.6666 50.5 14.5241 50.5 15.5833V22.1666H41.0833C40.0241 22.1666 39.1666 23.0241 39.1666 24.0833V30.6666H29.75C28.6908 30.6666 27.8333 31.5241 27.8333 32.5833V39.1666H18.4166C17.3574 39.1666 16.4999 40.0241 16.4999 41.0833V47.6666H7.08329C6.02408 47.6666 5.16658 48.5241 5.16658 49.5833V56.1666H1.41658H1.41649C0.357504 56.1667 -0.5 57.0242 -0.5 58.0833C-0.5 59.1425 0.357506 60 1.41671 60H66.5834C67.6426 60 68.5001 59.1425 68.5001 58.0833C68.5 57.0242 67.6425 56.1667 66.5833 56.1667Z" fill="white" stroke="white"/>
<path d="M28.5319 16.0053L11.179 31.189C11.179 31.1891 11.1789 31.1891 11.1789 31.1892C10.8154 31.5074 10.365 31.6629 9.91713 31.6629C9.38694 31.6629 8.85455 31.4425 8.47575 31.0081C7.77523 30.2112 7.85927 29.0002 8.65531 28.3033L8.6554 28.3032L26.245 12.9125L24.4026 13.2194C23.3677 13.4086 22.368 12.6816 22.1935 11.645C22.0173 10.5988 22.726 9.61295 23.7692 9.43906L23.7692 9.43906L32.2692 8.02235L32.2797 8.0206L32.2797 8.02071C32.9234 7.92748 33.6002 8.15017 34.0412 8.66908C34.4776 9.1794 34.6163 9.88075 34.4029 10.5192L28.5319 16.0053ZM28.5319 16.0053L27.9315 17.8065L27.9312 17.8073C27.5985 18.8113 28.1402 19.897 29.1447 20.2308C29.3451 20.2975 29.5477 20.3296 29.7506 20.3296C30.5512 20.3296 31.2997 19.8233 31.5693 19.0202L31.5696 19.0192L34.4028 10.5197L28.5319 16.0053Z" fill="white" stroke="white"/>
</g>
<defs>
<clipPath id="clip0_974_506">
<rect width="68" height="68" fill="white"/>
</clipPath>
</defs>
</svg>
